<svg width="40" height="40" viewBox="0 0 40 40" fill="none" xmlns="http://www.w3.org/2000/svg">
<path d="M27.5353 18.3219C29.3356 18.3219 30.795 17.0772 30.795 15.5417C30.795 14.0062 29.3356 12.7614 27.5353 12.7614C25.735 12.7614 24.2756 14.0062 24.2756 15.5417C24.2756 17.0772 25.735 18.3219 27.5353 18.3219Z" fill="#00AB46"/>
<path d="M10.535 17.6966C11.9303 17.6966 13.0615 16.7318 13.0615 15.5417C13.0615 14.3516 11.9303 13.3868 10.535 13.3868C9.13968 13.3868 8.00854 14.3516 8.00854 15.5417C8.00854 16.7318 9.13968 17.6966 10.535 17.6966Z" fill="#FE2B25"/>
<path d="M22.0166 20.1939C22.2638 18.8949 21.2296 17.671 19.7067 17.4602C18.1838 17.2493 16.7488 18.1314 16.5016 19.4303C16.2544 20.7293 17.2885 21.9532 18.8115 22.1641C20.3344 22.3749 21.7694 21.4928 22.0166 20.1939Z" fill="#FFB800"/>
<path d="M2.03197 21.5433C3.1542 21.5433 4.06394 20.7674 4.06394 19.8102C4.06394 18.853 3.1542 18.0771 2.03197 18.0771C0.909745 18.0771 0 18.853 0 19.8102C0 20.7674 0.909745 21.5433 2.03197 21.5433Z" fill="#1F87FC"/>
<path d="M27.5353 9.78225C29.3355 9.78225 30.7949 8.53748 30.7949 7.00198C30.7949 5.46648 29.3355 4.22171 27.5353 4.22171C25.735 4.22171 24.2756 5.46648 24.2756 7.00198C24.2756 8.53748 25.735 9.78225 27.5353 9.78225Z" fill="#00AB46"/>
<path d="M10.535 9.15701C11.9303 9.15701 13.0615 8.19223 13.0615 7.00212C13.0615 5.81201 11.9303 4.84723 10.535 4.84723C9.13968 4.84723 8.00854 5.81201 8.00854 7.00212C8.00854 8.19223 9.13968 9.15701 10.535 9.15701Z" fill="#FE2B25"/>
<path d="M22.0151 11.6554C22.2623 10.3565 21.2282 9.13255 19.7052 8.9217C18.1823 8.71085 16.7473 9.59293 16.5001 10.8919C16.2529 12.1908 17.2871 13.4148 18.81 13.6256C20.3329 13.8365 21.7679 12.9544 22.0151 11.6554Z" fill="#FFB800"/>
<path d="M22.0166 3.11515C22.2638 1.8162 21.2296 0.592267 19.7067 0.381417C18.1838 0.170568 16.7488 1.05265 16.5016 2.3516C16.2544 3.65055 17.2885 4.87448 18.8115 5.08533C20.3344 5.29618 21.7694 4.4141 22.0166 3.11515Z" fill="#FFB800"/>
<path d="M2.03197 13.004C3.1542 13.004 4.06394 12.228 4.06394 11.2708C4.06394 10.3137 3.1542 9.53772 2.03197 9.53772C0.909745 9.53772 0 10.3137 0 11.2708C0 12.228 0.909745 13.004 2.03197 13.004Z" fill="#1F87FC"/>
<path d="M36.189 23.0608C38.2938 23.0608 40 21.6054 40 19.8102C40 18.015 38.2938 16.5597 36.189 16.5597C34.0842 16.5597 32.378 18.015 32.378 19.8102C32.378 21.6054 34.0842 23.0608 36.189 23.0608Z" fill="#1F87FC"/>
<path d="M36.1889 14.5211C38.2937 14.5211 40 13.0658 40 11.2706C40 9.47539 38.2937 8.02008 36.1889 8.02008C34.0842 8.02008 32.3779 9.47539 32.3779 11.2706C32.3779 13.0658 34.0842 14.5211 36.1889 14.5211Z" fill="#1F87FC"/>
<path d="M29.8395 26.045C31.1125 24.9593 31.1125 23.1989 29.8395 22.1131C28.5665 21.0274 26.5026 21.0274 25.2296 22.1131C23.9566 23.1989 23.9566 24.9593 25.2296 26.045C26.5026 27.1308 28.5665 27.1308 29.8395 26.045Z" fill="#00AB46"/>
<path d="M10.535 26.2337C11.9303 26.2337 13.0615 25.269 13.0615 24.0788C13.0615 22.8887 11.9303 21.924 10.535 21.924C9.13968 21.924 8.00854 22.8887 8.00854 24.0788C8.00854 25.269 9.13968 26.2337 10.535 26.2337Z" fill="#FE2B25"/>
<path d="M29.8399 34.5849C31.1129 33.4991 31.1129 31.7388 29.8399 30.653C28.5669 29.5672 26.503 29.5672 25.23 30.653C23.957 31.7388 23.957 33.4991 25.23 34.5849C26.503 35.6707 28.5669 35.6707 29.8399 34.5849Z" fill="#00AB46"/>
<path d="M10.535 34.7733C11.9303 34.7733 13.0615 33.8086 13.0615 32.6185C13.0615 31.4283 11.9303 30.4636 10.535 30.4636C9.13968 30.4636 8.00854 31.4283 8.00854 32.6185C8.00854 33.8086 9.13968 34.7733 10.535 34.7733Z" fill="#FE2B25"/>
<path d="M21.8397 29.2617C22.4301 28.046 21.7532 26.6521 20.3278 26.1485C18.9024 25.6449 17.2682 26.2223 16.6778 27.4381C16.0873 28.6539 16.7642 30.0477 18.1897 30.5513C19.6151 31.0549 21.2492 30.4775 21.8397 29.2617Z" fill="#FFB800"/>
<path d="M21.8365 37.7983C22.4269 36.5825 21.75 35.1887 20.3246 34.6851C18.8992 34.1815 17.265 34.7588 16.6746 35.9746C16.0842 37.1904 16.7611 38.5842 18.1865 39.0878C19.6119 39.5914 21.2461 39.0141 21.8365 37.7983Z" fill="#FFB800"/>
<path d="M2.03197 30.0829C3.1542 30.0829 4.06394 29.307 4.06394 28.3498C4.06394 27.3926 3.1542 26.6167 2.03197 26.6167C0.909745 26.6167 0 27.3926 0 28.3498C0 29.307 0.909745 30.0829 2.03197 30.0829Z" fill="#1F87FC"/>
<path d="M36.1889 31.6004C38.2937 31.6004 40 30.1451 40 28.3499C40 26.5547 38.2937 25.0994 36.1889 25.0994C34.0842 25.0994 32.3779 26.5547 32.3779 28.3499C32.3779 30.1451 34.0842 31.6004 36.1889 31.6004Z" fill="#1F87FC"/>
</svg>
