<svg width="19" height="29" viewBox="0 0 19 29" fill="none" xmlns="http://www.w3.org/2000/svg">
<path d="M0.0605469 14.374V11.6978C0.0605469 11.4253 0.157227 11.1924 0.350586 10.999C0.543945 10.8057 0.776855 10.709 1.04932 10.709C1.33057 10.709 1.56787 10.8057 1.76123 10.999C1.95459 11.1924 2.05127 11.4253 2.05127 11.6978V14.2949C2.05127 15.7891 2.35889 17.0986 2.97412 18.2236C3.58936 19.3486 4.45508 20.2231 5.57129 20.8472C6.6875 21.4624 7.99707 21.77 9.5 21.77C11.0029 21.77 12.3081 21.4624 13.4155 20.8472C14.5317 20.2231 15.3975 19.3486 16.0127 18.2236C16.6279 17.0986 16.9355 15.7891 16.9355 14.2949V11.6978C16.9355 11.4253 17.0322 11.1924 17.2256 10.999C17.4189 10.8057 17.6562 10.709 17.9375 10.709C18.21 10.709 18.4429 10.8057 18.6362 10.999C18.8296 11.1924 18.9263 11.4253 18.9263 11.6978V14.374C18.9263 16.0967 18.5703 17.626 17.8584 18.9619C17.1553 20.2979 16.1709 21.3701 14.9053 22.1787C13.6396 22.9785 12.1675 23.4487 10.4888 23.5894V26.6611H15.3799C15.6611 26.6611 15.8984 26.7578 16.0918 26.9512C16.2852 27.1445 16.3818 27.3818 16.3818 27.6631C16.3818 27.9355 16.2852 28.1685 16.0918 28.3618C15.8984 28.5552 15.6611 28.6519 15.3799 28.6519H3.60693C3.32568 28.6519 3.08838 28.5552 2.89502 28.3618C2.70166 28.1685 2.60498 27.9355 2.60498 27.6631C2.60498 27.3818 2.70166 27.1445 2.89502 26.9512C3.08838 26.7578 3.32568 26.6611 3.60693 26.6611H8.49805V23.5894C6.81934 23.4487 5.34717 22.9785 4.08154 22.1787C2.81592 21.3701 1.82715 20.2979 1.11523 18.9619C0.412109 17.626 0.0605469 16.0967 0.0605469 14.374ZM4.70117 13.8994V5.60693C4.70117 4.59619 4.90332 3.7041 5.30762 2.93066C5.71191 2.14844 6.27441 1.5376 6.99512 1.09814C7.71582 0.658691 8.55078 0.438965 9.5 0.438965C10.4404 0.438965 11.271 0.658691 11.9917 1.09814C12.7124 1.5376 13.2749 2.14844 13.6792 2.93066C14.0835 3.7041 14.2856 4.59619 14.2856 5.60693V13.8994C14.2856 14.9102 14.0835 15.8066 13.6792 16.5889C13.2749 17.3623 12.7124 17.9688 11.9917 18.4082C11.271 18.8477 10.4404 19.0674 9.5 19.0674C8.55078 19.0674 7.71582 18.8477 6.99512 18.4082C6.27441 17.9688 5.71191 17.3623 5.30762 16.5889C4.90332 15.8066 4.70117 14.9102 4.70117 13.8994ZM6.69189 13.8994C6.69189 14.875 6.94678 15.6528 7.45654 16.2329C7.9751 16.813 8.65625 17.103 9.5 17.103C10.3438 17.103 11.0205 16.813 11.5303 16.2329C12.04 15.6528 12.2949 14.875 12.2949 13.8994V5.60693C12.2949 4.63135 12.04 3.85352 11.5303 3.27344C11.0205 2.69336 10.3438 2.40332 9.5 2.40332C8.65625 2.40332 7.9751 2.69336 7.45654 3.27344C6.94678 3.85352 6.69189 4.63135 6.69189 5.60693V13.8994Z" fill="#E7E7E7"/>
</svg>
