<svg width="42" height="41" viewBox="0 0 42 41" fill="none" xmlns="http://www.w3.org/2000/svg">
<path d="M16.7324 9.2078C17.2609 9.77965 17.7988 10.434 18.3248 11.1225L10.9413 17.2706L10.9658 14.0083L16.7324 9.2078Z" fill="#E50204"/>
<path d="M18.434 27.2244L15.2886 26.9587L14.6754 27.1144L23.3779 19.87L24.3614 22.2901L18.434 27.2244Z" fill="#750886"/>
<path d="M14.6754 27.115L11.4675 27.9294L7.61452 29.7771L7.63025 29.7409L22.3944 17.4504L23.3779 19.8705L14.6754 27.115Z" fill="#004DFF"/>
<path d="M7.63026 29.7402L9.54209 25.3416L9.67207 24.8016L21.1484 15.2481C21.6008 15.9756 21.9815 16.6218 22.2578 17.1135L22.3944 17.4497L7.63026 29.7402Z" fill="#018126"/>
<path d="M9.67202 24.8022L10.647 20.7517L19.7812 13.1479C20.2791 13.8785 20.7426 14.5963 21.1483 15.2487L9.67202 24.8022Z" fill="#FDEF03"/>
<path d="M10.9413 17.2678L10.9238 19.6017L10.647 20.7517L19.7813 13.1478C19.319 12.4694 18.827 11.7801 18.3242 11.1219L10.9413 17.2678Z" fill="#FF8B01"/>
<path d="M26.7139 29.3198C26.4995 27.4457 26.0512 25.6223 25.5176 23.8478C24.7129 21.2565 23.6702 18.7759 22.429 16.4482C21.2159 14.1653 19.8304 12.0113 18.2668 10.0598C16.6585 8.03541 14.8737 6.2173 12.9744 4.59743C11.2231 3.12158 9.37912 1.78978 7.42316 0.737459C7.27221 0.648991 7.09466 0.579252 6.93169 0.669028C6.64853 0.775002 6.47096 1.18225 6.58089 1.51715C6.65594 1.75284 6.77903 1.96081 6.87503 2.18567C7.79566 4.25136 8.58487 6.40522 9.20414 8.62927C9.8173 10.8545 10.265 13.1634 10.345 15.5135C10.3885 17.1829 10.2579 18.8529 10.0603 20.5047C9.87797 21.7486 9.63772 22.9823 9.30717 24.1829C8.69898 26.3104 7.85569 28.3794 6.61573 30.0844C6.44337 30.3396 6.15683 30.5567 6.17949 30.9264C6.18005 31.3942 6.64801 31.7477 6.99175 31.5017C8.2265 30.5582 9.5645 29.8225 10.9391 29.2282C12.6212 28.5324 14.3805 28.0613 16.1618 27.991C17.1664 27.9466 18.1733 28.0043 19.1731 28.1303C21.5068 28.4764 23.8068 29.1807 25.9751 30.2731C26.237 30.4235 26.5695 30.2482 26.6919 29.942C26.7651 29.744 26.7352 29.5245 26.7149 29.318L26.7139 29.3198ZM22.7478 27.5794C21.9937 27.3251 21.22 27.1679 20.4516 26.9905C19.1112 26.7544 17.7555 26.5952 16.3973 26.6388C14.1078 26.7071 11.8422 27.3308 9.71799 28.3524C9.38684 28.48 9.09003 28.7099 8.7549 28.8252C10.0895 26.1658 10.8855 23.1492 11.2336 20.0847C11.3555 19.0938 11.4363 18.0953 11.4453 17.0931C11.4856 16.6158 11.4917 16.1358 11.4566 15.658C11.4669 14.4867 11.3011 13.3281 11.1434 12.1763C10.6676 9.26992 9.82683 6.46646 8.79382 3.78369C8.66845 3.4725 8.53645 3.16493 8.42896 2.84471C8.53949 2.89501 8.64897 2.95018 8.75325 3.01936C13.1229 5.89635 17.0394 9.82161 20.0214 14.6279C22.1041 17.9811 23.7988 21.7071 24.8627 25.7001C25.1069 26.6474 25.3276 27.6048 25.4724 28.5819C24.5736 28.2136 23.6739 27.8385 22.7473 27.58L22.7478 27.5794Z" fill="black"/>
<path d="M34.4095 28.8424C33.6308 26.2385 32.6877 23.7054 31.5908 21.2732C30.5432 18.9763 29.3505 16.7583 27.8958 14.7992C27.1051 13.7263 26.2698 12.7025 25.4267 11.6897C23.9943 10.0208 22.4846 8.42465 20.7934 7.14164C19.993 6.54749 19.1546 5.99581 18.2389 5.70739C17.9962 5.64633 17.7395 5.5418 17.4927 5.62484C17.0755 5.75424 16.9621 6.48993 17.3109 6.78814C18.1348 7.44292 18.9149 8.17616 19.6487 8.96891C21.1957 10.6106 22.549 12.5177 23.6208 14.6382C25.775 18.8312 27.3937 23.4037 28.5518 28.1266C28.6483 28.4852 28.643 28.9298 28.9102 29.1834C29.0607 29.3372 29.2715 29.3107 29.4534 29.2761C29.986 29.1506 30.528 29.0594 31.0722 29.0806C31.4837 29.0953 31.8726 29.2765 32.2628 29.4162C32.6381 29.5785 33.0102 29.7498 33.3777 29.9358C33.6063 30.0474 33.8287 30.2354 34.0869 30.2086C34.3318 30.1818 34.5418 29.9323 34.574 29.6406C34.6046 29.3587 34.4834 29.1007 34.4111 28.8424L34.4095 28.8424ZM31.7369 27.8305C31.0493 27.6635 30.3389 27.7461 29.6502 27.8631C28.6141 23.5643 27.1811 19.4012 25.3508 15.5026C24.8894 14.5464 24.4147 13.598 23.897 12.6829C23.3089 11.6598 22.6517 10.696 21.9503 9.78257C23.6781 11.4183 25.2335 13.2988 26.7198 15.2417C28.1499 17.0803 29.3267 19.1815 30.3543 21.3677C31.2796 23.3455 32.0833 25.403 32.791 27.505C32.8816 27.7652 32.9687 28.0291 33.0364 28.3001C32.5994 28.1582 32.1792 27.9499 31.7369 27.8299L31.7369 27.8305Z" fill="black"/>
<path d="M40.5907 39.7618C40.3924 39.4794 40.0626 39.5593 39.7982 39.4682C39.2292 39.288 38.795 38.7821 38.3649 38.33C37.8168 37.7353 37.2435 37.1215 36.5272 36.8431C35.8259 36.5343 35.0295 36.5522 34.3341 36.8847C33.5357 37.2378 32.9136 37.9575 32.2537 38.5736C31.8064 38.9959 31.2898 39.3652 30.7104 39.4128C30.1953 39.4486 29.6479 39.3028 29.2449 38.9016C29.8135 38.5944 30.3721 38.2645 30.9231 37.9169C32.2437 37.065 33.5758 36.2292 34.8177 35.2167C35.9484 34.3122 37.0379 33.3346 38.1113 32.3344C38.2506 32.2023 38.4104 32.0685 38.4603 31.8515C38.5759 31.4322 38.2626 30.9424 37.8924 30.9922C36.258 31.0843 34.6247 31.2382 32.9909 31.3322C31.2053 31.4416 29.4209 31.5961 27.6357 31.7091C25.8686 31.8052 24.1039 31.9752 22.3372 32.0749C20.5714 32.1838 18.8069 32.3397 17.0417 32.4431C15.2932 32.5503 13.547 32.7106 11.7976 32.8062C10.0928 32.9278 8.38748 33.0518 6.68319 33.1739C5.80566 33.2284 4.92617 33.2731 4.05043 33.3594C3.71199 33.3739 3.45924 33.8332 3.57138 34.212C3.63839 34.4348 3.74219 34.6378 3.83014 34.8498C4.10838 35.4675 4.36566 36.0991 4.64287 36.718C4.06264 37.1552 3.49898 37.6218 2.93431 38.0872C2.47684 38.4368 2.03075 38.831 1.51178 39.0372C1.30287 39.079 1.06184 39.0613 0.909143 39.2733C0.61579 39.5844 0.728989 40.2284 1.10241 40.3662C1.46018 40.488 1.83482 40.3283 2.17022 40.1775C3.2825 39.5538 4.21786 38.5726 5.27603 37.8367C5.56231 37.655 5.85141 37.4361 6.18232 37.4087C6.53356 37.451 6.80913 37.7462 7.08568 37.9798C7.85355 38.7068 8.5744 39.5306 9.46344 40.0448C10.2288 40.5031 11.1321 40.676 11.967 40.4001C12.9572 40.1101 13.7272 39.2633 14.5292 38.5603C14.9082 38.2321 15.3227 37.9146 15.7973 37.8522C16.2308 37.7785 16.676 37.9211 17.0402 38.2029C17.7651 38.7507 18.3284 39.5562 19.0765 40.0632C19.8269 40.6124 20.7707 40.8143 21.6227 40.5086C22.3983 40.2701 23.0328 39.6446 23.6291 39.0329C24.0924 38.5905 24.5637 38.092 25.1625 37.9542C25.7747 37.8037 26.4245 37.9906 26.9244 38.4353C27.7626 39.1421 28.45 40.1525 29.4524 40.5448C30.32 40.9318 31.314 40.8086 32.1234 40.2778C32.7674 39.8802 33.29 39.2654 33.8642 38.7476C34.235 38.4169 34.6394 38.0974 35.1055 38.0136C35.636 37.8997 36.1997 38.0389 36.6499 38.3923C37.3247 38.9079 37.8359 39.6715 38.5025 40.1999C39.0147 40.6245 39.6337 40.9156 40.2654 40.8721C40.6804 40.819 40.9101 40.1129 40.5902 39.763L40.5907 39.7618ZM28.2231 37.9094C28.0454 37.7939 27.9023 37.6169 27.739 37.4777C27.127 36.9271 26.381 36.541 25.6055 36.5547C24.9767 36.5475 24.3522 36.7878 23.8231 37.1924C23.1085 37.7031 22.5562 38.4837 21.829 38.9723C21.3165 39.3404 20.67 39.3838 20.1084 39.1756C19.1866 38.7546 18.5666 37.7789 17.7522 37.1541C17.1686 36.6868 16.4599 36.4042 15.7525 36.4966C15.0452 36.5896 14.3955 36.9964 13.835 37.5089C13.1412 38.1003 12.5006 38.8565 11.654 39.1195C10.8835 39.3537 10.0904 39.0106 9.45626 38.4935C8.67875 37.8977 8.03975 37.0818 7.26173 36.4866C6.79683 36.132 6.21221 35.934 5.67278 36.1553C5.42971 35.6649 5.22499 35.1479 5.01004 34.6394C6.8112 34.4892 8.61314 34.3708 10.4155 34.2598C12.2212 34.1133 14.0272 33.9968 15.8332 33.8802C17.2755 33.7653 18.7181 33.6631 20.1611 33.5793C22.3068 33.4097 24.4533 33.275 26.6004 33.1268C28.5579 32.9613 30.5178 32.8753 32.4758 32.7098C33.3671 32.6591 34.2551 32.5626 35.1472 32.5357C35.4445 32.5049 35.7434 32.4705 36.0419 32.4905C35.9587 32.5998 35.8664 32.6992 35.7665 32.7864C34.8878 33.5426 34.0065 34.2976 33.0761 34.96C31.7372 35.8801 30.3898 36.7873 28.9909 37.5683C28.7386 37.6928 28.4893 37.8375 28.2236 37.9106L28.2231 37.9094Z" fill="black"/>
</svg>
