<svg width="16" height="12" viewBox="0 0 16 12" fill="none" xmlns="http://www.w3.org/2000/svg">
<path d="M14.6667 0.166656C15.1269 0.166656 15.5 0.539753 15.5 0.99999C15.5 1.46023 15.1269 1.83332 14.6667 1.83332H1.33333C0.873096 1.83332 0.5 1.46023 0.5 0.99999C0.5 0.539753 0.873096 0.166656 1.33333 0.166656H14.6667ZM14.6667 5.16666C15.1269 5.16666 15.5 5.53975 15.5 5.99999C15.5 6.46023 15.1269 6.83332 14.6667 6.83332H1.33333C0.873096 6.83332 0.5 6.46023 0.5 5.99999C0.5 5.53975 0.873096 5.16666 1.33333 5.16666H14.6667ZM14.6667 10.1667C15.1269 10.1667 15.5 10.5398 15.5 11C15.5 11.4602 15.1269 11.8333 14.6667 11.8333H1.33333C0.873096 11.8333 0.5 11.4602 0.5 11C0.5 10.5398 0.873096 10.1667 1.33333 10.1667H14.6667Z" fill="white"/>
</svg>
